<?xml version="1.0" encoding="UTF-8"?>
<svg version="1.1" xmlns="http://www.w3.org/2000/svg" width="512" height="512">
<path d="M0 0 C0.76280761 -0.00367669 1.52561522 -0.00735338 2.31153822 -0.01114148 C4.86374558 -0.022141 7.41591217 -0.02601585 9.96813965 -0.02983093 C11.79997892 -0.03609854 13.63181693 -0.0427456 15.46365356 -0.04974365 C21.47750976 -0.07075597 27.49136612 -0.08114531 33.50524902 -0.09111023 C35.57930006 -0.09515923 37.65335096 -0.0992762 39.72740173 -0.10346031 C49.47547806 -0.12250796 59.22354685 -0.13673833 68.9716382 -0.14507228 C80.2041078 -0.15483502 91.43637983 -0.18113124 102.66877985 -0.22157317 C111.36285645 -0.25179561 120.05687661 -0.26654707 128.7510047 -0.26985329 C133.93759275 -0.27219731 139.12396965 -0.28107276 144.3105011 -0.30631447 C149.19596793 -0.32970675 154.08108624 -0.3337838 158.9665947 -0.32355309 C160.75108885 -0.32306027 162.53560082 -0.32930482 164.32004166 -0.34310913 C174.70167582 -0.41886982 183.54050981 0.28222753 193.34899902 4.14717102 C194.11724251 4.44796412 194.88548599 4.74875723 195.67700958 5.05866528 C206.80089063 9.70090492 215.82946979 20.627684 221.17321777 31.13154602 C225.73353215 42.8277676 225.88828068 53.92804965 226.03649902 66.33467102 C226.06972764 68.25982369 226.10422227 70.18495494 226.14001465 72.11006165 C226.22428077 76.78897882 226.29138685 81.46785286 226.34899902 86.14717102 C227.19172363 86.32022766 228.03444824 86.4932843 228.90270996 86.67158508 C235.56011394 88.1099482 241.58200639 89.69364331 247.59899902 92.89717102 C248.27591797 93.24860168 248.95283691 93.60003235 249.65026855 93.96211243 C255.03350135 96.82877755 259.83130766 100.02935064 264.34899902 104.14717102 C265.16755371 104.87420227 265.9861084 105.60123352 266.82946777 106.35029602 C276.90153962 115.79762514 283.17130223 127.05592681 287.34899902 140.14717102 C287.71831543 141.30346008 287.71831543 141.30346008 288.09509277 142.48310852 C292.78980542 160.93818583 289.15453777 181.4643713 280.26306152 197.99873352 C277.35643594 202.77983601 274.09944952 207.00267694 270.34899902 211.14717102 C269.67224121 211.91674133 268.9954834 212.68631165 268.29821777 213.47920227 C256.23203431 226.42773919 238.48766347 234.77506617 220.74743652 235.48310852 C199.42559994 235.80478174 180.68267362 231.75827353 164.34899902 217.14717102 C163.61294434 216.50392883 162.87688965 215.86068665 162.11853027 215.19795227 C151.66599009 205.46503619 145.29397917 193.77227051 141.34899902 180.14717102 C141.10407715 179.35568665 140.85915527 178.56420227 140.60681152 177.74873352 C135.89521259 159.35413493 139.71869081 139.69801775 148.50524902 123.26045227 C151.11324555 118.85669543 153.93116873 114.95323356 157.34899902 111.14717102 C158.07731934 110.32603821 158.80563965 109.5049054 159.55603027 108.65888977 C171.26641412 96.19177675 185.81002807 89.57778392 202.34899902 86.14717102 C202.4238123 81.20335606 202.47791057 76.25987914 202.51379395 71.31562805 C202.52877136 69.63783519 202.54916056 67.96008074 202.57531738 66.28242493 C202.93290006 49.14657654 202.93290006 49.14657654 195.34899902 34.14717102 C188.52832993 27.23714819 181.85726043 23.40120011 171.98180103 23.01574326 C170.68676497 23.01276859 169.39172892 23.00979393 168.05744934 23.00672913 C167.33336055 23.003758 166.60927177 23.00078688 165.8632409 22.99772573 C163.44222204 22.98906937 161.02125282 22.98753307 158.60021973 22.98603821 C156.86203405 22.98140783 155.12384938 22.97638287 153.38566589 22.97099304 C148.66643316 22.95788733 143.94721463 22.95142752 139.22796655 22.94698238 C136.27717603 22.9440484 133.32638938 22.93994295 130.37560081 22.93547821 C121.13636936 22.92180742 111.89714675 22.912139 102.65790588 22.90827632 C92.00557463 22.90379798 81.35337186 22.88625869 70.70107967 22.85727572 C62.4588499 22.83563143 54.21665619 22.82557055 45.97439831 22.8242352 C41.05566444 22.82318905 36.13705141 22.81732169 31.21834755 22.79941559 C26.58818966 22.78288761 21.95824282 22.78080228 17.32806587 22.7895546 C15.63423343 22.79032247 13.94038942 22.78601533 12.24658585 22.77609634 C0.11182678 22.70923579 -11.29690206 22.88816821 -20.46350098 31.93623352 C-27.93573555 40.00002 -29.82240573 47.62740369 -29.74865723 58.51045227 C-29.74724228 59.30243515 -29.74582733 60.09441803 -29.74436951 60.91040039 C-29.73879555 63.42686321 -29.7262479 65.94323533 -29.71350098 68.45967102 C-29.70848261 70.17125827 -29.70392029 71.88284693 -29.6998291 73.59443665 C-29.68883465 77.7787161 -29.67158805 81.96292821 -29.65100098 86.14717102 C-28.80827637 86.32022766 -27.96555176 86.4932843 -27.09729004 86.67158508 C-20.43988606 88.1099482 -14.41799361 89.69364331 -8.40100098 92.89717102 C-7.72408203 93.24860168 -7.04716309 93.60003235 -6.34973145 93.96211243 C-0.96649865 96.82877755 3.83130766 100.02935064 8.34899902 104.14717102 C9.16755371 104.87420227 9.9861084 105.60123352 10.82946777 106.35029602 C20.90153962 115.79762514 27.17130223 127.05592681 31.34899902 140.14717102 C31.71831543 141.30346008 31.71831543 141.30346008 32.09509277 142.48310852 C36.78980542 160.93818583 33.15453777 181.4643713 24.26306152 197.99873352 C21.35643594 202.77983601 18.09944952 207.00267694 14.34899902 211.14717102 C13.67224121 211.91674133 12.9954834 212.68631165 12.29821777 213.47920227 C0.23203431 226.42773919 -17.51233653 234.77506617 -35.25256348 235.48310852 C-56.57440006 235.80478174 -75.31732638 231.75827353 -91.65100098 217.14717102 C-92.38705566 216.50392883 -93.12311035 215.86068665 -93.88146973 215.19795227 C-104.33400991 205.46503619 -110.70602083 193.77227051 -114.65100098 180.14717102 C-114.89592285 179.35568665 -115.14084473 178.56420227 -115.39318848 177.74873352 C-120.10478741 159.35413493 -116.28130919 139.69801775 -107.49475098 123.26045227 C-104.88675445 118.85669543 -102.06883127 114.95323356 -98.65100098 111.14717102 C-97.55852051 109.9154718 -97.55852051 109.9154718 -96.44396973 108.65888977 C-86.00770591 97.54823088 -72.83075638 90.33061619 -57.94689941 87.08418274 C-57.14105408 86.90765167 -56.33520874 86.73112061 -55.50494385 86.54924011 C-54.58724213 86.35021591 -54.58724213 86.35021591 -53.65100098 86.14717102 C-53.64165527 84.97323792 -53.63230957 83.79930481 -53.62268066 82.58979797 C-53.58237383 78.17423032 -53.5165087 73.75933005 -53.44348145 69.3441925 C-53.4155052 67.44454109 -53.39417638 65.54477831 -53.38000488 63.64497375 C-53.23573305 45.38496843 -50.65317563 28.9707827 -37.65100098 15.14717102 C-26.78108599 5.37699817 -14.6218433 -0.00380716 0 0 Z " fill="#0F172A" transform="translate(169.6510009765625,244.8528289794922)"/>
<path d="M0 0 C10.16457181 9.22177095 17.2881856 22.10117327 18.11328125 35.84375 C18.53362246 53.07013169 14.27930715 66.8244809 2.3125 79.51953125 C-9.58188675 91.01362614 -22.55016176 94.64411018 -38.71435547 94.46679688 C-53.3831608 93.91462788 -65.44877659 87.46455721 -75.53515625 76.80859375 C-86.30605224 63.70885538 -89.39706211 48.39048793 -88.125 31.875 C-85.49132096 16.89793366 -76.53821127 4.89086106 -64.50390625 -3.96875 C-59.47611691 -7.34907338 -53.88158656 -9.33406196 -48.125 -11.125 C-47.50496094 -11.32480469 -46.88492188 -11.52460938 -46.24609375 -11.73046875 C-29.29298272 -14.88380984 -13.94079772 -9.47974245 0 0 Z " fill="#CAD4E0" transform="translate(419.125,364.125)"/>
<path d="M0 0 C10.16457181 9.22177095 17.2881856 22.10117327 18.11328125 35.84375 C18.53362246 53.07013169 14.27930715 66.8244809 2.3125 79.51953125 C-9.58188675 91.01362614 -22.55016176 94.64411018 -38.71435547 94.46679688 C-53.3831608 93.91462788 -65.44877659 87.46455721 -75.53515625 76.80859375 C-86.30605224 63.70885538 -89.39706211 48.39048793 -88.125 31.875 C-85.49132096 16.89793366 -76.53821127 4.89086106 -64.50390625 -3.96875 C-59.47611691 -7.34907338 -53.88158656 -9.33406196 -48.125 -11.125 C-47.50496094 -11.32480469 -46.88492188 -11.52460938 -46.24609375 -11.73046875 C-29.29298272 -14.88380984 -13.94079772 -9.47974245 0 0 Z " fill="#CAD4E0" transform="translate(163.125,364.125)"/>
<path d="M0 0 C2.82424288 2.19022918 4.41508603 3.83017207 6 7 C6.0909215 8.8179454 6.11753467 10.63925945 6.11352539 12.45947266 C6.11341209 14.17102036 6.11341209 14.17102036 6.11329651 15.91714478 C6.10813522 17.15362762 6.10297394 18.39011047 6.09765625 19.6640625 C6.0962413 20.92640717 6.09482635 22.18875183 6.09336853 23.48934937 C6.08871078 26.84638299 6.07972408 30.203349 6.06866455 33.56036377 C6.0584377 36.98554906 6.05386818 40.41074134 6.04882812 43.8359375 C6.03778238 50.55731043 6.02103194 57.27865131 6 64 C7.07328804 63.98334541 7.07328804 63.98334541 8.16825867 63.96635437 C14.92129018 63.86604475 21.67411292 63.78998117 28.42772198 63.74093914 C31.89964849 63.71487773 35.37095792 63.67954613 38.8425293 63.62280273 C42.83648499 63.55793166 46.82979558 63.53379138 50.82421875 63.51171875 C52.06709152 63.48591232 53.30996429 63.4601059 54.59049988 63.43351746 C64.19298134 63.43039345 64.19298134 63.43039345 67.26098633 66.40551758 C70.06613083 70.59058996 70.70181636 73.99114626 70 79 C67.83082603 82.56364295 65.84296663 84.46671015 62 86 C59.39300537 86.24050903 59.39300537 86.24050903 56.40527344 86.22705078 C54.72398346 86.22682419 54.72398346 86.22682419 53.00872803 86.22659302 C51.20229828 86.21110916 51.20229828 86.21110916 49.359375 86.1953125 C47.50339691 86.19106766 47.50339691 86.19106766 45.60992432 86.18673706 C42.32848459 86.177442 39.04724246 86.15948705 35.76586914 86.1373291 C32.41424378 86.11683048 29.06260993 86.10789724 25.7109375 86.09765625 C19.14054777 86.0756003 12.57029004 86.04212582 6 86 C6.00888245 86.70299728 6.01776489 87.40599457 6.0269165 88.1302948 C6.10716995 94.76563998 6.16801862 101.4008491 6.20724869 108.03657055 C6.22809576 111.44784999 6.25635897 114.85872734 6.30175781 118.26977539 C6.35365959 122.19412369 6.37296922 126.11831096 6.390625 130.04296875 C6.41127014 131.26396774 6.43191528 132.48496674 6.45318604 133.7429657 C6.45363922 135.45417351 6.45363922 135.45417351 6.45410156 137.19995117 C6.46298401 138.20144699 6.47186646 139.20294281 6.48101807 140.23478699 C5.86784037 143.75974179 4.42566492 145.42253168 2 148 C-1.26934278 150.28853994 -4.0698152 150.47162218 -8 150 C-11.6578218 147.96006092 -13.66946174 146.49580738 -16 143 C-16.24050903 140.47529602 -16.24050903 140.47529602 -16.22705078 137.42700195 C-16.22689972 136.28604568 -16.22674866 135.14508942 -16.22659302 133.96955872 C-16.21627045 132.73823715 -16.20594788 131.50691559 -16.1953125 130.23828125 C-16.1924826 128.97735153 -16.18965271 127.71642181 -16.18673706 126.4172821 C-16.17743125 123.06839578 -16.15946703 119.71978209 -16.1373291 116.37097168 C-16.11685386 112.95241653 -16.10773176 109.5338332 -16.09765625 106.11523438 C-16.0755818 99.41008081 -16.04209362 92.70505615 -16 86 C-16.6882486 86.00888245 -17.37649719 86.01776489 -18.08560181 86.0269165 C-25.25571377 86.11548295 -32.42567006 86.17577339 -39.59619141 86.21972656 C-42.27163375 86.23756825 -44.94622016 86.26711049 -47.62158203 86.30175781 C-51.46918571 86.35033506 -55.31620787 86.37298365 -59.1640625 86.390625 C-60.35802643 86.41127014 -61.55199036 86.43191528 -62.78213501 86.45318604 C-69.13324534 86.45489819 -73.25051169 86.42300467 -78 82 C-80.4678316 78.29825261 -80.68072732 75.29506525 -80 71 C-77 65.5 -77 65.5 -74 64 C-72.1514292 63.90898388 -70.29953621 63.88246854 -68.44873047 63.88647461 C-67.28767792 63.88655014 -66.12662537 63.88662567 -64.9303894 63.88670349 C-63.67203278 63.89186478 -62.41367615 63.89702606 -61.1171875 63.90234375 C-59.83264679 63.9037587 -58.54810608 63.90517365 -57.22463989 63.90663147 C-53.80843158 63.91045089 -50.39226574 63.92027627 -46.97607422 63.93133545 C-43.49056574 63.94156193 -40.0050504 63.94613174 -36.51953125 63.95117188 C-29.67967005 63.96189904 -22.83983706 63.97896858 -16 64 C-16.00888245 63.29922333 -16.01776489 62.59844666 -16.0269165 61.87643433 C-16.10723103 55.25611713 -16.16804951 48.63593687 -16.20724869 42.01524162 C-16.22807946 38.61183682 -16.25631258 35.20883625 -16.30175781 31.80566406 C-16.3537335 27.88872194 -16.37298269 23.97194065 -16.390625 20.0546875 C-16.41127014 18.83884979 -16.43191528 17.62301208 -16.45318604 16.37033081 C-16.45599469 5.76569771 -16.45599469 5.76569771 -12 1 C-8.28546768 -0.85726616 -4.04420575 -0.58501089 0 0 Z " fill="#0E1629" transform="translate(261,32)"/>
</svg>
