<?xml version="1.0" encoding="UTF-8"?>
<svg version="1.1" xmlns="http://www.w3.org/2000/svg" width="500" height="500">
<path d="M0 0 C2.16315452 1.05424126 4.19295414 2.22923761 6.24707031 3.48242188 C7.01776855 3.93133789 7.7884668 4.38025391 8.58251953 4.84277344 C11.04603022 6.28548145 13.49105501 7.75614147 15.93457031 9.23242188 C17.52403758 10.18096968 19.11388002 11.12888913 20.70410156 12.07617188 C24.00772667 14.05031788 27.30457462 16.03532904 30.59863281 18.02539062 C43.60691513 25.86583273 56.71774317 33.53535912 70.05957031 40.79492188 C80.84864933 46.66624332 91.3873974 52.93980267 101.93457031 59.23242188 C112.82787607 65.72281246 123.72450456 72.17775809 134.83496094 78.29052734 C153.42215054 88.54285559 171.69868346 99.37053695 189.93457031 110.23242188 C190.88315918 110.79719238 191.83174805 111.36196289 192.80908203 111.94384766 C195.62319678 113.62095591 198.43557421 115.30092802 201.24707031 116.98242188 C202.10800293 117.49635498 202.96893555 118.01028809 203.85595703 118.53979492 C204.64115723 119.01070557 205.42635742 119.48161621 206.23535156 119.96679688 C206.92798096 120.38155273 207.62061035 120.79630859 208.33422852 121.22363281 C209.93457031 122.23242187 209.93457031 122.23242187 210.93457031 123.23242188 C211.03091676 124.5772684 211.05828994 125.9271366 211.05761814 127.27542973 C211.05960919 128.15175306 211.06160024 129.0280764 211.06365162 129.93095499 C211.06073878 130.90467017 211.05782594 131.87838535 211.05482483 132.88160706 C211.05610647 134.42034616 211.05610647 134.42034616 211.057414 135.9901709 C211.05907188 139.45578554 211.0535424 142.92135265 211.0480957 146.38696289 C211.04781387 148.85998534 211.04797149 151.33300787 211.04853821 153.80603027 C211.04876653 159.14480269 211.04591511 164.48356007 211.04030037 169.82232857 C211.03218758 177.54137483 211.02957038 185.26041518 211.02831238 192.97946524 C211.02612151 205.50185712 211.01946048 218.02424251 211.01000977 230.54663086 C211.00083655 242.71394824 210.99375527 254.88126385 210.98950195 267.04858398 C210.98910787 268.17279373 210.98910787 268.17279373 210.98870582 269.31971479 C210.98740082 273.07944603 210.98613711 276.83917728 210.98489392 280.59890854 C210.97452022 311.81008438 210.95682684 343.02125214 210.93457031 374.23242188 C210.4183653 374.5184751 209.90216028 374.80452833 209.37031269 375.09924984 C207.00705592 376.40926378 204.64427181 377.720128 202.28149414 379.03100586 C201.46948799 379.48095665 200.65748184 379.93090744 199.82086945 380.3944931 C194.03363499 383.6063619 188.30213756 386.89677509 182.62207031 390.29492188 C180.76162428 391.39947781 178.90093368 392.50362187 177.04003906 393.60742188 C175.5751001 394.47753906 175.5751001 394.47753906 174.08056641 395.36523438 C168.2048777 398.85252812 162.32380687 402.33055205 156.43457031 405.79492188 C155.81674683 406.15839722 155.19892334 406.52187256 154.56237793 406.8963623 C145.69215008 412.10714996 136.73222537 417.12177194 127.6730957 421.99755859 C120.12575933 426.07881923 112.78558668 430.4564836 105.45019531 434.90429688 C98.87597996 438.88586392 92.2521245 442.78236276 85.62207031 446.66992188 C84.99995667 447.03473663 84.37784302 447.39955139 83.73687744 447.77542114 C74.69897057 453.07064191 65.61490316 458.27709843 56.48413086 463.41088867 C38.81483322 473.34957765 21.20656511 483.42231762 3.95410156 494.07226562 C3.06078125 494.62011719 2.16746094 495.16796875 1.24707031 495.73242188 C0.50070312 496.19648438 -0.24566406 496.66054688 -1.01464844 497.13867188 C-3.1641613 498.28507873 -4.64739753 498.92230654 -7.06542969 499.23242188 C-9.38110352 498.29882813 -9.38110352 498.29882813 -11.95996094 496.79492188 C-12.93271973 496.23546875 -13.90547852 495.67601562 -14.90771484 495.09960938 C-15.94976074 494.4834375 -16.99180664 493.86726563 -18.06542969 493.23242188 C-19.12938965 492.61625 -20.19334961 492.00007813 -21.28955078 491.36523438 C-24.17189435 489.69153422 -27.04700637 488.00669898 -29.91815186 486.31393433 C-31.80291171 485.2029599 -33.68910256 484.09445098 -35.57568359 482.98657227 C-40.55342909 480.06311019 -45.52930418 477.13647416 -50.50439453 474.20849609 C-64.46303828 465.94960091 -64.46303828 465.94960091 -78.69042969 458.16992188 C-87.63232468 453.48087938 -96.26214738 448.27441752 -104.93066406 443.10205078 C-110.63679214 439.69881645 -116.35075303 436.30877532 -122.06542969 432.91992188 C-122.64570923 432.57576233 -123.22598877 432.23160278 -123.82385254 431.87701416 C-133.89062519 425.90854813 -143.9704295 419.99243706 -154.26074219 414.41601562 C-159.88283662 411.3537281 -165.41901279 408.15945624 -170.94042969 404.91992188 C-171.95057129 404.32888672 -172.96071289 403.73785156 -174.00146484 403.12890625 C-176.76306863 401.51256195 -179.52377917 399.89470415 -182.28417969 398.27630615 C-184.77974576 396.81380387 -187.2763428 395.35306579 -189.7729187 393.89228821 C-192.36275882 392.37681989 -194.95222107 390.8607069 -197.54156494 389.34439087 C-198.78999971 388.61331154 -200.03849249 387.88233127 -201.28704834 387.15145874 C-203.05465512 386.11651502 -204.82181973 385.08082021 -206.58886719 384.04492188 C-208.10359619 383.15740234 -208.10359619 383.15740234 -209.64892578 382.25195312 C-211.34009521 381.25228516 -211.34009521 381.25228516 -213.06542969 380.23242188 C-214.28907237 379.66216246 -214.28907237 379.66216246 -215.53743511 379.08038265 C-222.4758823 375.58182916 -222.4758823 375.58182916 -224.02039802 372.04660738 C-224.41498419 369.34543098 -224.48993916 366.78842661 -224.46311951 364.05839539 C-224.49212516 363.03620826 -224.52113082 362.01402114 -224.55101544 360.96085864 C-224.6353889 357.53578802 -224.64826424 354.11426403 -224.66088867 350.68823242 C-224.70554864 348.23212978 -224.75417532 345.77609654 -224.80647278 343.32014465 C-224.93336321 336.64585667 -224.99407644 329.97296176 -225.03438449 323.29776359 C-225.05979063 319.12346451 -225.10022403 314.94939539 -225.14341927 310.77524757 C-225.26052556 299.20039157 -225.35930716 287.62572567 -225.38929653 276.05028057 C-225.39124063 275.30992982 -225.39318473 274.56957906 -225.39518774 273.80679344 C-225.39711506 273.06473796 -225.39904238 272.32268247 -225.4010281 271.55814046 C-225.40493759 270.05462937 -225.40887554 268.55111836 -225.4128418 267.04760742 C-225.41479378 266.30182479 -225.41674577 265.55604215 -225.41875691 264.78766004 C-225.45382566 252.72388788 -225.62024562 240.66584472 -225.84421586 228.60424354 C-226.07272393 216.19732575 -226.19109578 203.79326546 -226.20069939 191.38420898 C-226.20858819 184.42493944 -226.26289677 177.47307616 -226.43725395 170.51581383 C-227.48514888 126.98781034 -227.48514888 126.98781034 -220.20736122 118.27581215 C-213.81384476 112.03496973 -205.8563229 108.90200605 -197.44720459 106.33292389 C-192.92976643 104.86285272 -189.19260946 102.64876408 -185.24121094 100.06445312 C-184.06339889 99.36589988 -182.8818524 98.67359682 -181.69628906 97.98828125 C-180.05370117 97.02631836 -180.05370117 97.02631836 -178.37792969 96.04492188 C-177.7968042 95.70485107 -177.21567871 95.36478027 -176.61694336 95.0144043 C-170.14582433 91.22723314 -163.68575259 87.42465428 -157.27319336 83.53881836 C-153.99618604 81.59972003 -150.64850823 79.79784431 -147.29980469 77.98632812 C-137.26339081 72.54387664 -127.27831634 67.03198457 -117.51245117 61.11547852 C-110.66689211 56.97422881 -103.77631799 52.90983389 -96.87792969 48.85742188 C-96.24214996 48.48391602 -95.60637024 48.11041016 -94.95132446 47.72558594 C-87.34144924 43.26055336 -79.69971143 38.87168436 -71.94042969 34.66992188 C-64.71396949 30.75493163 -57.61404405 26.65333164 -50.55029297 22.45169067 C-48.82594482 21.4261755 -47.10011202 20.40319771 -45.37402344 19.38061523 C-39.664602 15.99361453 -33.97913937 12.57174049 -28.32324219 9.09570312 C-26.1956938 7.80785056 -24.06809197 6.52008628 -21.94042969 5.23242188 C-20.49361816 4.32399536 -20.49361816 4.32399536 -19.01757812 3.3972168 C-12.60285755 -0.45466587 -7.31475948 -2.71839288 0 0 Z M14.93457031 173.23242188 C11.85739353 179.36086447 8.78370898 185.49105024 5.7121582 191.62231445 C4.67254827 193.69658608 3.63221382 195.77049478 2.59106445 197.84399414 C-2.94063027 208.86188827 -8.41465162 219.89966471 -13.70214844 231.03710938 C-18.23444305 240.5776743 -22.96027336 250.00273217 -27.81643677 259.38208008 C-29.97850205 263.55882231 -32.12855829 267.74174729 -34.28027344 271.92382812 C-34.69768295 272.73445709 -35.11509247 273.54508606 -35.54515076 274.38027954 C-38.94158248 280.98000502 -42.30500534 287.59531159 -45.62792969 294.23242188 C-46.05009766 295.07232666 -46.47226563 295.91223145 -46.90722656 296.77758789 C-49.11622164 301.20625175 -51.16358359 305.66313029 -53.06542969 310.23242188 C-50.0243122 311.83763121 -46.98243736 313.44140024 -43.94042969 315.04492188 C-42.65652344 315.72264648 -42.65652344 315.72264648 -41.34667969 316.4140625 C-40.08984375 317.07631836 -40.08984375 317.07631836 -38.80761719 317.75195312 C-38.04304199 318.15518799 -37.2784668 318.55842285 -36.49072266 318.97387695 C-33.69704648 320.42358509 -30.8833789 321.8305723 -28.06542969 323.23242188 C-27.39338501 321.88833252 -27.39338501 321.88833252 -26.70776367 320.51708984 C-20.65120443 308.40397135 -14.59464518 296.29085286 -8.53808594 284.17773438 C-7.96630615 283.03409424 -7.39452637 281.8904541 -6.80541992 280.7121582 C-5.64764009 278.39676098 -4.48960071 276.08149353 -3.33129883 273.76635742 C0.34361104 266.42042988 4.012664 259.07160638 7.67755127 251.72067261 C9.73105201 247.60257328 11.78575173 243.48507314 13.84096146 239.36782646 C15.35694593 236.33062308 16.8721577 233.29303888 18.38574219 230.25463867 C20.16277118 226.6875049 21.94313408 223.12204379 23.72363281 219.55664062 C24.25816071 218.48242355 24.7926886 217.40820648 25.34341431 216.30143738 C28.32312031 210.34158775 31.40734122 204.46213338 34.65731812 198.64485168 C36.92300109 194.36550798 38.93457031 190.14067562 38.93457031 185.23242188 C35.12379028 183.22913171 31.31066806 181.23034211 27.49707031 179.23242188 C26.40845703 178.66007813 25.31984375 178.08773437 24.19824219 177.49804688 C23.16376953 176.95664063 22.12929688 176.41523438 21.06347656 175.85742188 C20.10513916 175.3546875 19.14680176 174.85195312 18.15942383 174.33398438 C16.19897889 173.15847033 16.19897889 173.15847033 14.93457031 173.23242188 Z M-111.06542969 189.23242188 C-130.20542969 208.37242187 -149.34542969 227.51242188 -169.06542969 247.23242188 C-167.07456214 251.21415696 -164.80524769 253.76292033 -161.69775391 256.82714844 C-160.8780159 257.64732452 -160.8780159 257.64732452 -160.04171753 258.48406982 C-158.23921876 260.28517836 -156.42974573 262.07910435 -154.62011719 263.87304688 C-153.36700602 265.12242683 -152.1143365 266.37224989 -150.86209106 267.62249756 C-147.56867013 270.90829059 -144.26928678 274.18803258 -140.96862793 277.46655273 C-137.60013975 280.8145644 -134.23732209 284.16826095 -130.87402344 287.52148438 C-124.27669793 294.09737484 -117.67305986 300.66688703 -111.06542969 307.23242188 C-105.66236943 302.67091808 -105.66236943 302.67091808 -100.53808594 297.80273438 C-99.97412109 297.23554688 -99.41015625 296.66835938 -98.82910156 296.08398438 C-98.26771484 295.51421875 -97.70632812 294.94445312 -97.12792969 294.35742188 C-96.24524414 293.46796875 -96.24524414 293.46796875 -95.34472656 292.56054688 C-93.91595295 291.12015721 -92.49034837 289.67662517 -91.06542969 288.23242188 C-95.37170225 283.08412444 -99.888549 278.27490115 -104.65136719 273.54882812 C-105.35315094 272.84845932 -106.05493469 272.14809052 -106.77798462 271.42649841 C-108.99644104 269.21359161 -111.21836784 267.00420771 -113.44042969 264.79492188 C-114.95498435 263.28538873 -116.46930953 261.77562531 -117.98339844 260.265625 C-121.67476068 256.58522485 -125.36897037 252.90770231 -129.06542969 249.23242188 C-127.66033869 246.04982337 -125.99621626 243.91893722 -123.53369141 241.47363281 C-122.8130954 240.75318787 -122.09249939 240.03274292 -121.35006714 239.29046631 C-120.18436691 238.14024994 -120.18436691 238.14024994 -118.99511719 236.96679688 C-118.19888947 236.17339905 -117.40266174 235.38000122 -116.58230591 234.56256104 C-114.03967021 232.03111484 -111.49016621 229.50671384 -108.94042969 226.98242188 C-107.21471216 225.26673571 -105.48944613 223.55059526 -103.76464844 221.83398438 C-99.53679937 217.6281794 -95.303291 213.42813681 -91.06542969 209.23242188 C-91.83363037 208.46945801 -92.60183105 207.70649414 -93.39331055 206.92041016 C-95.25188398 205.05079905 -97.06376134 203.18723047 -98.81933594 201.22460938 C-99.5125293 200.45697266 -99.5125293 200.45697266 -100.21972656 199.67382812 C-101.16416009 198.62329319 -102.10685046 197.57118871 -103.04785156 196.51757812 C-105.59941134 193.69837222 -107.99173036 191.53769637 -111.06542969 189.23242188 Z M95.17871094 191.76123047 C94.48970703 192.46070801 93.80070312 193.16018555 93.09082031 193.88085938 C92.33929688 194.63882813 91.58777344 195.39679688 90.81347656 196.17773438 C90.0284375 196.97953125 89.24339844 197.78132812 88.43457031 198.60742188 C87.64953125 199.40148437 86.86449219 200.19554687 86.05566406 201.01367188 C84.59833353 202.48850037 83.14305511 203.96536123 81.69042969 205.44482422 C80.44448676 206.71328836 79.19182428 207.97516791 77.93457031 209.23242188 C79.20300781 210.22242188 79.20300781 210.22242188 80.49707031 211.23242188 C82.86919552 213.20708902 84.86605547 215.25143951 86.83691406 217.62304688 C90.0910305 221.39128872 93.55572293 224.87433704 97.12207031 228.34179688 C97.67317978 228.88026245 98.22428925 229.41872803 98.792099 229.97351074 C101.09212205 232.21945779 103.39358811 234.46341754 105.71337891 236.68896484 C107.42349622 238.33281689 109.11752981 239.9918715 110.80957031 241.65429688 C111.3396167 242.15539978 111.86966309 242.65650269 112.41577148 243.17279053 C115.92643051 246.6569702 115.92643051 246.6569702 115.96508789 249.38989258 C114.74789577 251.56618941 113.52108915 252.73272163 111.57128906 254.29101562 C106.50500115 258.52817191 101.86213808 263.15408675 97.20629883 267.83032227 C95.74249547 269.29951355 94.27338344 270.76324481 92.80371094 272.2265625 C88.29305728 276.73435074 83.91549815 281.24628981 79.93457031 286.23242188 C78.94457031 287.22242188 78.94457031 287.22242188 77.93457031 288.23242188 C78.71960938 288.94527344 79.50464844 289.658125 80.31347656 290.39257812 C85.98206164 295.55510397 91.57234643 300.74832926 96.93457031 306.23242188 C101.28363203 304.57513379 104.0262385 301.32102666 107.18457031 298.04492188 C110.7475265 294.40604197 114.27851678 290.82096678 118.18457031 287.54492188 C121.01266405 285.14955056 123.45224932 282.59533934 125.89160156 279.80664062 C131.48248402 273.54016941 137.41249994 267.64422917 143.37207031 261.73242188 C144.47061468 260.63891 145.56892326 259.54516118 146.66699219 258.45117188 C148.65895745 256.46729204 150.65216863 254.48468578 152.6472168 252.50390625 C154.07864906 251.08240494 155.50809488 249.65889731 156.93457031 248.23242188 C156.49466263 247.79251419 156.05475494 247.35260651 155.60151672 246.89936829 C124.80688477 216.10473633 124.80688477 216.10473633 122.76280212 214.06037903 C121.23266787 212.53047465 119.70164619 211.00145789 118.17041016 209.47265625 C116.03565093 207.33370117 113.91459756 205.18215647 111.79785156 203.02539062 C110.28103533 201.49012485 108.76410562 199.95497118 107.24707031 198.41992188 C106.47556641 197.63166016 105.7040625 196.84339844 104.90917969 196.03125 C104.17119141 195.28681641 103.43320312 194.54238281 102.67285156 193.77539062 C101.66798706 192.75481567 101.66798706 192.75481567 100.64282227 191.71362305 C98.26289374 189.65002059 97.54920042 189.6972698 95.17871094 191.76123047 Z " fill="#000000" transform="translate(257.0654296875,0.767578125)"/>
<path d="M0 0 C0 3 0 3 -1.390625 4.68359375 C-2.00421875 5.26238281 -2.6178125 5.84117187 -3.25 6.4375 C-4.20326172 7.35015625 -4.20326172 7.35015625 -5.17578125 8.28125 C-5.77777344 8.8484375 -6.37976563 9.415625 -7 10 C-8.2065625 11.2065625 -8.2065625 11.2065625 -9.4375 12.4375 C-9.953125 12.953125 -10.46875 13.46875 -11 14 C-11 11 -11 11 -8.59375 8.30078125 C-7.5700032 7.29697757 -6.5383946 6.30114351 -5.5 5.3125 C-4.97535156 4.80138672 -4.45070312 4.29027344 -3.91015625 3.76367188 C-2.61339096 2.50227292 -1.30753883 1.25022788 0 0 Z " fill="#060609" transform="translate(164,290)"/>
</svg>
